<?xml version="1.0" encoding="UTF-8"?>
<!DOCTYPE svg PUBLIC "-//W3C//DTD SVG 1.1//EN" "http://www.w3.org/Graphics/SVG/1.1/DTD/svg11.dtd">
<!-- Creator: CorelDRAW -->
<svg xmlns="http://www.w3.org/2000/svg" xml:space="preserve" width="120.7mm" height="7.0974mm" version="1.1" style="shape-rendering:geometricPrecision; text-rendering:geometricPrecision; image-rendering:optimizeQuality; fill-rule:evenodd; clip-rule:evenodd"
viewBox="0 0 10647.6 626.1"
 xmlns:xlink="http://www.w3.org/1999/xlink">
 <defs>
  <style type="text/css">
   <![CDATA[
    .fil0 {fill:#BDBFC1;fill-rule:nonzero}
   ]]>
  </style>
 </defs>
 <g id="Layer_x0020_1">
  <metadata id="CorelCorpID_0Corel-Layer"/>
  <path class="fil0" d="M7674.63 395.41c-16.51,6.25 -37.69,14 -63.53,23.25 -25.78,9.33 -51.12,15.01 -75.95,17.09 7.82,-29 10.02,-58.05 6.86,-87.04l264.87 0c-32.08,12.3 -113.22,39.08 -132.24,46.7zm-173.53 40.34c-28.92,-4.16 -46.51,-20.68 -52.69,-49.59 2.08,-2.09 3.03,-7.26 3.03,-15.52 0,-4.15 -2.02,-8.26 -6.18,-12.4 -4.09,-4.17 -10.27,-5.68 -18.59,-4.6 -8.2,1 -12.36,5.66 -12.36,13.92 0,10.35 1.07,17.53 3.09,21.68 -4.09,20.62 -12.92,37.7 -26.4,51.12 -13.36,13.43 -31.46,18.09 -54.21,13.99 -28.93,-4.15 -46.97,-21.24 -54.21,-51.12 -4.79,-19.79 -7,-37.93 -6.87,-54.52l235.42 0c2.77,29.43 -0.51,58.43 -10.03,87.04zm-34.16 74.37c-8.2,12.42 -17.52,23.71 -27.86,34.1 -20.61,18.59 -43.86,31.45 -69.71,38.71 -25.85,7.24 -52.69,10.33 -80.61,9.32 -27.87,-1.06 -55.8,-5.73 -83.72,-13.92 -27.86,-8.32 -53.13,-16.58 -75.89,-24.83 -20.66,-6.18 -40.34,-13.94 -58.93,-23.26 -18.59,-9.26 -37.19,-19.1 -55.78,-29.43 24.82,-2.09 48.6,-13.44 71.29,-34.1 16.58,-14.44 27.92,-32.02 34.1,-52.63 6.18,-20.74 9.32,-42.42 9.32,-65.11l111.57 0c-4.09,51.61 11.34,91.89 46.46,120.89 28.99,20.61 56.85,26.35 83.7,17.02 26.91,-9.26 47.59,-26.35 62.02,-51.12 10.34,16.51 28.93,26.85 55.79,30.95 -6.25,16.51 -13.44,31.01 -21.75,43.42zm-542.38 -68.19c-20.6,-16.58 -40.78,-32.08 -60.45,-46.52 -19.6,-14.42 -38.69,-29.93 -57.3,-46.45l288.24 0c0,28.93 -6.25,54.7 -18.6,77.46 -16.51,28.93 -39.2,42.86 -68.2,41.86 -28.93,-1.08 -83.71,-26.35 -83.71,-26.35zm-266.55 -206.12c-35.11,-25.84 -73.3,-50.12 -114.64,-72.87l55.78 -37.18c41.35,-24.77 87.85,-45.94 139.49,-63.47 51.68,-17.65 103.81,-27.92 156.5,-31.02 52.7,-3.15 103.38,3.53 151.85,20.1 48.6,16.51 90.44,45.45 125.56,86.8 22.75,24.77 38.26,52.69 46.51,83.71 8.26,30.88 14.44,62.84 18.53,95.8l-11.79 0 0 0.26 -102.87 0c0,-4.16 -5.61,-40.91 -37.18,-68.2 -15.63,-13.49 -35.11,-20.1 -55.79,-23.25 -20.61,-3.1 -40.77,-0.5 -60.44,7.82 -19.61,8.2 -35.68,21.67 -48.04,40.28 -6.17,10.27 -4.65,18.03 4.67,23.25 9.27,5.11 17.09,2.51 23.25,-7.75 18.6,-29 43.38,-40.34 74.38,-34.1 31.02,6.18 52.69,24.77 65.04,55.79l0 6.18 -325.42 0c-35.12,-29 -70.22,-56.28 -105.39,-82.13zm-297.56 82.13c24.82,-22.75 49.66,-44.94 74.43,-66.63 24.77,-21.67 50.68,-42.92 77.47,-63.52 35.17,16.51 68.2,36.12 99.21,58.86 31.01,22.76 61.96,46.52 92.97,71.3l-344.08 0zm-49.54 0l-542.38 0c76.45,-39.26 152.91,-79.53 229.37,-120.89 76.39,-41.35 156,-65.04 238.57,-71.29 47.58,-4.16 91.02,-1.51 130.22,7.75 39.26,9.33 78.54,22.19 117.73,38.77 -39.19,31.01 -79.47,65.11 -120.82,102.3 -8.26,6.17 -16.51,12.85 -24.77,20.1 -8.26,7.24 -17.59,15 -27.92,23.25zm-306.85 189.1c-95.04,43.36 -195.26,62.97 -300.65,58.86 -64.04,-2.07 -126.56,-17.01 -187.52,-44.93 -60.95,-27.87 -112.07,-68.71 -153.41,-122.42 -2.08,-2.07 -5.17,-7.3 -9.33,-15.5 62.02,18.6 121.45,23.26 178.19,13.93 56.92,-9.33 112.13,-25.34 165.9,-48.02l573.38 0c-82.62,61.96 -171.51,114.65 -266.56,158.08zm-406.03 -158.08c-39.2,10.33 -79.05,16.51 -119.32,18.59 -40.34,2.01 -82.13,-4.15 -125.56,-18.59l244.88 0zm1707.74 -80.62c14.5,-14.43 31.02,-24.76 49.6,-30.95 18.6,-6.25 37.76,-7.75 57.36,-4.67 19.66,3.09 37.76,11.85 54.21,26.35 18.53,16.95 31.26,36.49 38.27,58.61l-225.91 0c4.66,-19.79 13.5,-36.3 26.47,-49.35zm-2195.91 99.21c-40.29,-2.07 -80.06,-8.26 -119.31,-18.59l241.76 0c-41.35,14.43 -82.17,20.6 -122.45,18.59zm113.14 31.01c-39.21,53.71 -89.34,94.55 -150.34,122.42 -60.95,27.92 -124.47,42.86 -190.6,44.93 -103.29,4.11 -202.5,-15.5 -297.57,-58.86 -95,-43.43 -183.88,-96.12 -266.53,-158.08l570.27 0c53.76,22.69 109.57,38.69 167.4,48.02 57.86,9.33 116.75,4.67 176.69,-13.93 -4.15,8.2 -7.24,13.43 -9.32,15.5zm-948.44 -80.61c-10.33,-8.26 -19.06,-16.01 -26.33,-23.25 -7.24,-7.25 -16,-13.94 -26.36,-20.1 -20.6,-18.6 -40.29,-36.18 -58.87,-52.7 -18.63,-16.58 -38.23,-33.09 -58.91,-49.6 37.19,-16.58 75.94,-29.44 116.22,-38.77 40.3,-9.25 83.22,-11.91 128.64,-7.75 84.74,6.25 164.8,29.94 240.2,71.29 75.46,41.36 151.37,81.63 227.79,120.89l-542.39 0zm-393.63 0c30.99,-24.77 62.53,-48.54 94.54,-71.3 32.08,-22.74 64.61,-42.34 97.63,-58.86 26.88,20.61 52.7,41.85 77.49,63.52 24.79,21.69 49.59,43.88 74.39,66.63l-344.05 0zm-58.87 0l-325.44 0 3.08 -6.18c10.38,-31.02 31,-49.6 62,-55.79 30.97,-6.24 55.77,5.11 74.38,34.1 6.21,10.27 13.96,12.86 23.24,7.75 9.31,-5.22 10.85,-12.99 4.63,-23.25 -12.38,-18.6 -28.36,-32.08 -48.02,-40.28 -19.62,-8.32 -39.24,-10.91 -58.88,-7.82 -19.61,3.15 -37.67,10.9 -54.23,23.25 -16.51,12.42 -24.91,26.6 -34.11,52.7 -0.94,2.7 -4.1,11.34 -6.19,15.5l-111.58 0c2.08,-33.09 7.76,-65.05 17.04,-96.06 9.29,-31.02 24.32,-58.94 44.95,-83.71 35.16,-41.35 77.5,-70.28 127.06,-86.8 49.62,-16.58 100.73,-23.25 153.42,-20.1 52.7,3.1 104.91,13.36 156.52,31.02 51.7,17.53 98.2,38.7 139.48,63.47l55.81 37.18c-41.3,22.75 -80.06,47.03 -116.24,72.87 -36.12,25.85 -71.78,53.13 -106.92,82.13zm-161.2 123.99l-3.07 0c-24.82,16.51 -51.16,25.27 -79.07,26.35 -27.87,1 -50.06,-12.92 -66.61,-41.86 -14.42,-20.67 -21.69,-46.45 -21.69,-77.46l291.33 0 -120.89 92.97zm-145.67 88.3c-18.57,9.32 -38.18,17.08 -58.87,23.26 -22.72,8.26 -48.05,16.51 -75.94,24.83 -27.89,8.2 -55.78,12.86 -83.7,13.92 -27.9,1.01 -54.71,-2.07 -80.57,-9.32 -25.79,-7.26 -49.07,-20.12 -69.73,-38.71 -10.32,-10.39 -19.62,-21.68 -27.91,-34.1 -8.23,-12.41 -15.5,-26.91 -21.71,-43.42 24.8,-4.1 43.41,-14.44 55.79,-30.95 16.59,24.77 37.77,41.86 63.56,51.12 25.86,9.33 53.22,3.59 82.13,-17.02 18.61,-14.49 31.54,-32.59 38.74,-54.26 7.27,-21.69 9.83,-43.94 7.73,-66.63l114.69 0c-2.02,22.69 0.56,44.37 7.76,65.11 7.25,20.61 19.13,38.19 35.65,52.63 22.77,20.67 45.46,32.01 68.16,34.1 -18.59,10.33 -37.15,20.17 -55.79,29.43zm-439.07 -181.53l233.81 0c0.42,16.58 -1.38,34.73 -5.48,54.52 -6.2,29.88 -24.79,46.97 -55.79,51.12 -22.73,4.1 -40.27,-0.56 -52.7,-13.99 -12.4,-13.42 -20.63,-30.5 -24.79,-51.12l0 -21.68c0,-8.26 -3.59,-12.92 -10.85,-13.92 -7.21,-1.08 -12.87,0.43 -17.06,4.6 -4.12,4.15 -6.2,8.26 -6.2,12.4l0 15.52c-2.05,16.51 -7.74,28.36 -17.03,35.67 -9.31,7.19 -20.16,11.86 -32.55,13.93 -9.52,-28.62 -13.28,-57.61 -11.36,-87.04zm42.36 -89.63c35.17,-29 72.82,-36.19 113.14,-21.68 38.21,13.68 62.79,40.59 74.02,80.29l-224.53 0c6.41,-22.12 18.86,-41.66 37.37,-58.61zm-144.13 159.58c-25.79,-9.25 -46.97,-17.01 -63.55,-23.25 -18.96,-7.62 -97.48,-34.4 -129.16,-46.7l263.63 0c-2.36,29 -0.79,58.05 5,87.04 -24.78,-2.07 -50.05,-7.75 -75.92,-17.09zm7670.03 -30.37c-3.97,-16.13 -13.56,-29.94 -28.62,-41.54 -18.91,-12.92 -40.4,-21.48 -64.48,-25.65 -24.09,-4.16 -197.36,-4.54 -218.98,-3.59l-0.12 0.19 -2795.72 0c-5.49,-21.1 -14.12,-40.71 -26.09,-58.61 -22.69,-35.17 -55.28,-55.35 -97.64,-60.45 -42.36,-5.16 -80.05,4.67 -113.14,29.44 -12.41,12.42 -23.69,26.84 -34.1,43.44 -16.45,-78.6 -51.61,-141.58 -105.32,-189.1 -53.77,-47.59 -122.91,-74.37 -207.69,-80.61 -47.53,-4.17 -96.12,-1.01 -145.67,9.32 -49.6,10.34 -96.05,24.77 -139.49,43.37 -28.92,12.42 -56.28,26.84 -82.18,43.43 -25.79,16.51 -50.04,33.03 -72.8,49.6 -14.43,-6.25 -28.37,-12.42 -41.8,-18.65 -13.48,-6.18 -28.41,-11.35 -44.99,-15.46 -84.72,-26.91 -167.36,-31.51 -247.97,-13.98 -80.55,17.57 -158.07,46.01 -232.39,85.28 -43.43,20.61 -86.29,42.86 -128.64,66.61 -42.36,23.71 -85.29,45.95 -128.65,66.63l-790.35 0c-43.38,-20.68 -86.26,-42.92 -128.63,-66.63 -42.33,-23.76 -84.17,-46 -125.54,-66.61 -76.41,-39.26 -154.96,-67.71 -235.57,-85.28 -80.58,-17.53 -163.21,-12.92 -247.95,13.98 -26.82,8.2 -55.78,19.6 -86.78,34.1 -22.71,-16.58 -46.49,-33.09 -71.29,-49.6 -24.78,-16.58 -51.64,-31.01 -80.58,-43.43 -45.42,-18.6 -92.46,-33.03 -141.05,-43.37 -48.51,-10.34 -97.6,-13.5 -147.21,-9.32 -84.7,6.24 -153.88,33.02 -207.64,80.61 -53.71,47.52 -87.8,110.5 -102.3,189.1 -10.29,-16.59 -22.69,-31.02 -37.17,-43.44 -33.05,-24.77 -70.22,-34.6 -111.59,-29.44 -41.33,5.11 -74.39,25.28 -99.19,60.45 -11.92,17.9 -20.32,37.51 -25.26,58.61l-2734.44 0 -0.1 -0.19c-21.61,-0.95 -97.52,-1.07 -143.78,-0.49 -26.1,0.38 -51.11,-0.08 -75.22,4.08 -24.06,4.17 -45.55,12.73 -64.47,25.65 -15.1,11.6 -24.64,25.41 -28.59,41.54 -3.95,16.13 -4.29,32.02 -0.92,47.72 3.31,15.69 10.62,30.5 21.86,44.5 11.27,13.99 24.21,23.69 38.89,29.11 29.3,10.85 58.15,9.77 86.61,-3.27 28.41,-13.12 44.37,-36.05 47.85,-68.83 0.5,-10.71 -4.48,-17.4 -14.97,-20.04 -10.5,-2.7 -16.04,1.33 -16.54,12.04 -2.33,24.01 -14.04,40.72 -35.17,50.18 -21.2,9.45 -42.3,8.43 -63.37,-3.21 -10.89,-6.76 -19.41,-15.83 -25.52,-27.43 -6.18,-11.54 -9.32,-23.57 -9.42,-36.18 -0.19,-12.61 3.37,-23.83 10.59,-33.72 7.16,-9.89 19.25,-14.56 34.56,-19.92 55.4,-19.48 251.54,-10.52 251.54,-10.52l2264.97 0c-2.62,2.96 -5.07,6.11 -7.26,9.53 -9.31,14.42 -14.96,29.93 -17.05,46.51 -2.01,16.51 0,33.53 6.22,51.11 6.19,17.53 15.5,31.52 27.89,41.86 24.79,20.61 53.21,29.44 85.23,26.35 32.08,-3.09 55.3,-20.17 69.74,-51.12 4.15,-10.4 1.06,-18.6 -9.31,-24.84 -10.31,-6.17 -17.54,-4.15 -21.69,6.25 -10.32,22.69 -26.84,35.11 -49.6,37.19 -22.71,2.01 -42.32,-6.25 -58.88,-24.83 -8.22,-10.35 -13.44,-22.19 -15.49,-35.61 -2.06,-13.49 -1.05,-26.35 3.1,-38.77 4.17,-12.35 11.37,-22.18 21.69,-29.44 10.37,-7.24 23.77,-9.84 40.29,-7.75 41.35,4.15 206.63,60.95 247.96,77.52 18.6,8.2 40.83,15.44 66.65,21.68 25.84,6.18 51.13,10.34 75.9,12.36 12.41,33.09 32.08,64.04 58.91,93.03 39.29,39.21 84.75,60.89 136.39,65.04 51.68,4.16 104.36,-1.52 158.06,-17.02 53.75,-15.51 105.41,-37.75 154.97,-66.62 49.58,-29 92.97,-55.79 130.19,-80.62 22.74,-16.58 46.49,-34.1 71.29,-52.69 24.79,-18.6 48.57,-38.27 71.27,-58.87l424.63 0c10.36,8.26 20.15,15.95 29.45,23.25 9.28,7.18 19.13,14.93 29.46,23.19 49.57,35.12 101.24,67.71 154.97,97.7 53.76,29.88 110.54,54.21 170.46,72.8 74.38,22.7 151.38,33.54 230.88,32.53 79.59,-1.01 154.48,-20.1 224.73,-57.3 31,-16.58 61.49,-37.18 91.44,-62.02 25.21,-20.8 73.05,-97.75 87.74,-121.78 20.04,24.71 82.56,101.11 107.53,121.78 30,24.84 59.44,45.45 88.31,62.02 72.35,37.19 148.3,56.29 227.85,57.3 79.53,1.01 156.5,-9.84 230.89,-32.53 59.93,-18.59 116.22,-42.92 168.91,-72.8 52.69,-29.99 104.89,-62.58 156.5,-97.7l55.78 -46.45 427.73 0c49.61,43.36 97.13,80.55 142.57,111.56 37.25,24.83 80.62,51.62 130.22,80.62 49.54,28.87 100.73,51.11 153.42,66.62 52.63,15.5 105.38,21.18 158.07,17.02 52.69,-4.15 98.7,-25.83 137.91,-65.04 24.77,-24.84 43.38,-55.78 55.78,-93.03 24.77,-2.02 50.12,-6.18 75.96,-12.36 25.85,-6.25 49.1,-13.49 69.71,-21.68 39.26,-16.58 206.67,-73.37 247.96,-77.52 16.58,-2.09 29.94,0.5 40.27,7.75 10.34,7.26 17.59,17.09 21.68,29.44 4.16,12.42 5.24,25.28 3.15,38.77 -2.07,13.42 -7.24,25.26 -15.5,35.61 -16.51,18.59 -36.69,26.84 -60.45,24.83 -23.77,-2.08 -40.78,-14.5 -51.18,-37.19 -4.1,-10.4 -10.84,-12.41 -20.11,-6.25 -9.32,6.25 -11.85,14.44 -7.75,24.84 14.42,30.95 37.69,48.03 69.71,51.12 32.08,3.09 60.45,-5.74 85.28,-26.35 12.36,-10.34 21.69,-24.33 27.86,-41.86 6.18,-17.58 8.26,-34.6 6.18,-51.11 -2.02,-16.58 -7.75,-32.08 -17.02,-46.51 -2.21,-3.41 -4.73,-6.56 -7.44,-9.53l2324.19 0c0,0 212.27,1.07 251.48,10.52 15.88,3.41 27.42,10.03 34.6,19.92 7.19,9.9 10.78,21.12 10.59,33.72 -0.12,12.61 -3.27,24.64 -9.46,36.24 -6.11,11.53 -14.62,20.61 -25.53,27.43 -21.06,11.58 -42.16,12.6 -63.34,3.15 -21.18,-9.46 -32.84,-26.16 -35.17,-50.18 -0.5,-10.71 -6.05,-14.74 -16.51,-12.04 -10.53,2.65 -15.5,9.33 -15.01,20.04 3.48,32.78 19.41,55.72 47.85,68.83 28.48,13.05 57.3,14.12 86.59,3.27 14.7,-5.42 27.68,-15.12 38.89,-29.06 11.28,-14.05 18.6,-28.86 21.88,-44.55 3.41,-15.7 3.03,-31.59 -0.88,-47.72z"/>
 </g>
</svg>
